<svg width="25" height="24" viewBox="0 0 25 24" fill="none" xmlns="http://www.w3.org/2000/svg">
<rect x="0.714844" width="24.2852" height="24" rx="12" fill="black"/>
<path d="M18.9631 15.9918C18.7192 15.9307 18.4359 15.8922 18.1393 15.8859C17.8153 15.8791 17.5096 15.9114 17.2359 15.975L17.2488 15.9723L14.7092 16.5325C14.5421 16.1663 13.9364 15.8877 13.2207 15.8727C13.1922 15.8721 13.2207 15.8727 13.1394 15.8723L11.2897 15.8335L8.94389 15.418C8.89188 15.4084 8.83146 15.4021 8.76965 15.4008L7.93627 15.3833L7.93482 15.3144C7.93096 15.1304 7.65022 15.0477 7.3063 15.0404L5.82951 15.0094C5.48559 15.0022 5.29064 15.0732 5.29451 15.2572L5.36299 18.5158C5.36686 18.6999 5.42456 18.9077 5.51853 18.8524L7.38723 18.8916C7.73115 18.8989 8.00714 18.7553 8.00327 18.5713L8.0008 18.4539C8.79807 18.5549 9.49675 18.6821 10.1662 18.8402L10.0866 18.8233C10.6916 18.9515 11.3879 19.033 12.1121 19.0483C12.9475 19.0658 13.7416 18.9937 14.4649 18.8481L14.4242 18.8553C15.0546 18.7184 15.5896 18.5704 16.0947 18.4L16.0536 18.413C16.2189 18.3613 16.3842 18.3101 16.5506 18.2605C17.3695 18.0164 18.0251 17.8019 18.6129 17.5847C18.9081 17.4773 19.1659 17.3704 19.4101 17.2558L19.4032 17.2591C19.6136 17.17 19.7801 17.0561 19.8899 16.9243L19.8943 16.9185C19.92 16.8833 19.9345 16.8423 19.9336 16.7991C19.9331 16.7743 19.9276 16.7502 19.9177 16.7268L19.9187 16.7289C19.8244 16.4152 19.4656 16.1479 18.9726 15.9949L18.9631 15.9918ZM7.37776 18.4408L5.90096 18.4097L5.83847 15.4358L7.31526 15.4668L7.37776 18.4408ZM18.8092 17.0488C18.6123 17.1399 18.3898 17.1829 18.0301 17.2607C17.6703 17.3384 17.2423 17.498 17.2423 17.498C16.5258 17.6905 16.6653 17.6448 15.8791 17.8787C15.7048 17.9308 14.9759 18.134 14.8036 18.1877C14.3915 18.3278 14.5417 18.2599 14.0448 18.3708L13.7264 18.4145C13.1826 18.5236 12.7688 18.4766 12.1044 18.4626C11.5377 18.4507 10.9901 18.5328 10.4807 18.4285L9.79469 18.137C9.06806 17.9602 8.9364 17.8826 8.05601 17.7855L7.98711 17.7789L8.01504 15.8364L8.9531 15.8561L10.4309 16.0276C10.4309 16.0276 11.2372 16.2707 11.299 16.272L13.1487 16.3109C13.3695 16.3156 13.9666 16.5169 13.9 16.8215C13.9 16.8215 13.1836 16.9749 12.9627 16.9702L9.76876 16.9031C9.42484 16.8959 9.14498 16.855 9.14885 17.0391C9.15272 17.2232 9.37843 17.2265 9.72235 17.2338L13.5109 17.3134C13.5546 17.3143 14.1374 17.3265 14.1374 17.3265L14.4294 17.1565L14.7192 17.0071L16.3041 16.6644L17.8579 16.4099C17.9709 16.3843 18.202 16.4171 18.3421 16.4201C18.4333 16.422 18.8888 16.4187 18.9724 16.4333L19.0986 16.6199C19.1914 16.652 19.0675 16.897 19.1055 16.9517L18.8092 17.0488Z" fill="white"/>
<path d="M12.6118 3.3852C12.5763 3.3676 12.5363 3.36577 12.5023 3.38025C10.7112 4.14166 10.5891 5.7966 10.6197 6.47277C10.6398 6.91454 10.7986 7.71023 10.9919 8.51229C10.7669 8.68978 10.4689 8.96773 10.2316 9.34049C9.94954 9.78366 9.8178 10.2574 9.84006 10.7485C9.84405 10.8364 9.93605 10.9043 10.018 10.8801L11.6298 10.4037L11.8303 10.4128L11.6628 10.7728C11.624 10.8561 11.6927 10.9628 11.7882 10.9672L14.0179 11.0682C14.1133 11.0726 14.1726 10.9716 14.1261 10.8845L13.9253 10.5078L14.1258 10.5169L15.7875 11.1416C15.8719 11.1734 15.9581 11.1135 15.9542 11.0256C15.9037 9.91159 15.0834 9.07678 14.5945 8.6755C14.7158 7.88771 14.8029 7.1032 14.7829 6.66145C14.7523 5.98527 14.4794 4.31246 12.6118 3.3852ZM12.5689 3.64576C13.559 4.15518 14.0507 4.89397 14.2933 5.54123L13.8558 5.5214C13.5985 5.09152 13.1352 4.78762 12.6196 4.76424C12.104 4.74089 11.6664 5.00395 11.4471 5.41225L11.0096 5.39243C11.1944 4.76451 11.6211 4.06735 12.5689 3.64576ZM13.8059 6.19998C13.82 6.50979 13.7067 6.7849 13.5124 6.97912C13.3182 7.17331 13.043 7.28662 12.7333 7.27259C12.1138 7.24451 11.5869 6.71764 11.5588 6.09813C11.5308 5.47862 12.0119 4.99745 12.6314 5.02553C13.251 5.05359 13.7778 5.58045 13.8059 6.19998ZM11.441 10.1801L10.1011 10.5762C10.1364 9.74888 10.6603 9.14852 11.064 8.80576C11.1897 9.30674 11.3239 9.79341 11.441 10.1801ZM13.7946 10.7974L11.9878 10.7155L12.1224 10.4261L13.6331 10.4945L13.7946 10.7974ZM15.6764 10.8289L14.295 10.3095C14.3775 9.93184 14.468 9.45542 14.5486 8.96382C14.9722 9.33415 15.5643 9.98937 15.6764 10.8289ZM14.3786 8.32063L13.3133 8.27233C13.2412 8.26908 13.1853 8.32492 13.1886 8.39705C13.1919 8.46922 13.253 8.53035 13.3252 8.53362L14.3404 8.57963C14.2489 9.17953 14.1365 9.78901 14.0349 10.252L11.697 10.146C11.5529 9.67193 11.3847 9.04972 11.2383 8.43902L12.7155 8.50597C12.7876 8.50923 12.8434 8.45339 12.8402 8.38126C12.8369 8.30909 12.7758 8.24796 12.7036 8.24469L11.1764 8.17547C11.1533 8.07473 11.1309 7.975 11.1095 7.87692L14.4187 8.02691C14.4061 8.12344 14.3927 8.22158 14.3786 8.32063ZM14.4508 7.76761L11.0537 7.61366C10.9588 7.1511 10.8929 6.74565 10.881 6.48462C10.8718 6.2819 10.8775 5.98413 10.9456 5.65024L11.3441 5.66831C11.3076 5.7992 11.2909 5.93955 11.2975 6.08629C11.3322 6.8499 11.9815 7.49928 12.7451 7.5339C13.1269 7.5512 13.4661 7.41158 13.7055 7.17218C13.9449 6.93278 14.0845 6.59364 14.0672 6.21184C14.0606 6.06509 14.031 5.92266 13.9825 5.78791L14.381 5.80598C14.4797 6.14741 14.5124 6.4469 14.5216 6.64962C14.5335 6.91065 14.504 7.31177 14.4508 7.76761Z" fill="white"/>
<path d="M12.8269 5.8189C12.7667 5.81765 12.7189 5.86544 12.7202 5.92563C12.7215 5.98586 12.7713 6.03568 12.8315 6.03694C12.9888 6.04024 13.1379 6.10456 13.2514 6.2181C13.365 6.33164 13.4293 6.48075 13.4326 6.63801C13.4359 6.79528 13.3777 6.94183 13.2688 7.05071C13.16 7.15958 13.0134 7.21771 12.8562 7.21443C12.5315 7.20764 12.2619 6.938 12.2551 6.61337C12.2516 6.44857 12.3186 6.29174 12.4374 6.18292C12.4812 6.14342 12.4826 6.0743 12.441 6.02903C12.3994 5.98375 12.3304 5.97925 12.2868 6.01899C12.1234 6.16801 12.0323 6.38299 12.037 6.60881C12.0463 7.05366 12.4159 7.42318 12.8607 7.43249C13.0832 7.43714 13.2829 7.35091 13.426 7.20785C13.569 7.06483 13.6553 6.86499 13.6506 6.64259C13.6461 6.4271 13.5579 6.22272 13.4024 6.06715C13.2468 5.91158 13.0424 5.8234 12.8269 5.8189Z" fill="white"/>
<path d="M13.1383 6.58618C13.205 6.51948 13.2026 6.40902 13.1331 6.33947C13.0635 6.26992 12.9531 6.26761 12.8864 6.33431C12.8197 6.40101 12.822 6.51146 12.8916 6.58101C12.9611 6.65056 13.0716 6.65287 13.1383 6.58618Z" fill="white"/>
<path d="M12.9445 11.1972C12.4355 11.1866 12.03 11.592 12.0407 12.101C12.042 12.1612 12.0918 12.211 12.152 12.2123C12.2122 12.2136 12.26 12.1658 12.2587 12.1056C12.2506 11.7168 12.5603 11.4072 12.949 11.4153C13.1373 11.4192 13.3159 11.4963 13.4519 11.6322C13.5878 11.7682 13.6649 11.9468 13.6688 12.1351C13.6751 12.4338 13.2366 13.0399 12.9897 13.3454C12.8498 13.1746 12.5686 12.816 12.3971 12.4957C12.3682 12.4417 12.3019 12.4196 12.2491 12.4462C12.1962 12.4729 12.1768 12.5383 12.2057 12.5923C12.4518 13.052 12.8932 13.5637 12.9118 13.5852C12.9558 13.636 13.0352 13.6375 13.0771 13.5887C13.161 13.4905 13.8968 12.6159 13.8869 12.1396C13.8817 11.8931 13.7808 11.6593 13.6028 11.4812C13.4248 11.3033 13.191 11.2024 12.9445 11.1972Z" fill="white"/>
<path d="M12.951 11.4357C12.6985 11.4304 12.4974 11.6315 12.5027 11.884C12.5071 12.0945 12.8209 12.6498 12.8837 12.759C12.9261 12.8327 13.0344 12.835 13.0738 12.763C13.1322 12.6563 13.4229 12.1137 13.4185 11.9031C13.4159 11.7808 13.3659 11.6648 13.2776 11.5765C13.1893 11.4882 13.0733 11.4382 12.951 11.4357ZM13.1427 11.7451C13.1788 11.7885 13.1993 11.8432 13.2004 11.8986C13.2023 11.9874 13.0872 12.2504 12.9728 12.4778C12.8488 12.2454 12.7226 11.9774 12.7207 11.8886C12.7186 11.7883 12.7818 11.6974 12.8757 11.6658C12.9693 11.6343 13.0774 11.6666 13.1427 11.7451Z" fill="white"/>
</svg>
