<svg width="25" height="25" viewBox="0 0 25 25" fill="none" xmlns="http://www.w3.org/2000/svg">
<rect x="0.320312" y="0.679688" width="24" height="24" rx="6" fill="black"/>
<g clip-path="url(#clip0_563_18979)">
<path d="M12.8635 2.70671C12.8 2.67789 12.7263 2.67863 12.6622 2.70881C9.28166 4.29638 8.88686 7.36032 8.87401 8.60391C8.86565 9.4164 9.07682 10.8672 9.35101 12.3263C8.91809 12.6766 8.34 13.2197 7.86431 13.9313C7.29877 14.7773 7.00729 15.6643 6.99797 16.5676C6.99632 16.7292 7.15898 16.8451 7.31252 16.792L10.3332 15.7483L10.702 15.7445L10.3563 16.4255C10.2763 16.5831 10.392 16.7728 10.5676 16.771L14.6683 16.7287C14.8439 16.7269 14.9635 16.5346 14.8868 16.3787L14.5551 15.7048L14.9239 15.701L17.9237 16.6826C18.0761 16.7325 18.2412 16.6133 18.2429 16.4516C18.2641 14.4027 16.8372 12.9475 15.9769 12.2578C16.2813 10.7928 16.5225 9.33736 16.5309 8.52491C16.5436 7.2813 16.212 4.2249 12.8635 2.70671ZM12.7579 3.19152C14.5311 4.02929 15.362 5.34106 15.7429 6.50962L14.9383 6.51793C14.5079 5.75167 13.6849 5.23885 12.7366 5.24861C11.7883 5.25844 10.9546 5.78834 10.5082 6.56367L9.70364 6.57197C10.1088 5.39526 10.967 4.06607 12.7579 3.19152ZM14.7767 7.77421C14.7708 8.34401 14.5338 8.86288 14.1557 9.24092C13.7777 9.61887 13.2587 9.85603 12.689 9.8619C11.5496 9.87366 10.6322 8.95624 10.644 7.81685C10.6557 6.67746 11.5922 5.74093 12.7316 5.72918C13.871 5.71738 14.7885 6.6348 14.7767 7.77421ZM10.0081 15.3554L7.4969 16.2231C7.64682 14.6941 8.67441 13.5334 9.454 12.86C9.63432 13.7708 9.83186 14.6544 10.0081 15.3554ZM14.2845 16.2521L10.9613 16.2864L11.2393 15.739L14.0178 15.7103L14.2845 16.2521ZM17.7509 16.1173L15.2571 15.3013C15.4479 14.5965 15.6637 13.7088 15.8628 12.7941C16.6058 13.4335 17.6303 14.5809 17.7509 16.1173ZM15.6152 11.6256L13.656 11.6458C13.5233 11.6472 13.4146 11.7559 13.4132 11.8885C13.4119 12.0213 13.5183 12.1277 13.651 12.1263L15.5182 12.1071C15.2881 13.2226 15.0183 14.3578 14.7834 15.2219L10.4837 15.2663C10.2665 14.4069 10.0201 13.2769 9.81298 12.1659L12.5296 12.1379C12.6623 12.1365 12.771 12.0278 12.7724 11.8951C12.7737 11.7624 12.6673 11.656 12.5346 11.6573L9.72586 11.6863C9.69346 11.5029 9.66244 11.3213 9.63306 11.1427L15.7193 11.0799C15.6862 11.2592 15.6514 11.4415 15.6152 11.6256ZM15.805 10.5985L9.55724 10.663C9.42968 9.81986 9.34962 9.07906 9.35455 8.59897C9.3584 8.22613 9.39931 7.67652 9.5591 7.0539L10.2921 7.04635C10.2114 7.29144 10.1662 7.55192 10.1634 7.82181C10.1489 9.22621 11.2797 10.357 12.6841 10.3425C13.3863 10.3352 14.0259 10.043 14.4919 9.57709C14.9578 9.11113 15.25 8.47149 15.2573 7.7693C15.2601 7.49939 15.2202 7.23981 15.1446 6.99633L15.8775 6.98877C16.0245 7.6082 16.0541 8.15705 16.0502 8.52989C16.0453 9.00996 15.95 9.75257 15.805 10.5985Z" fill="white"/>
<path d="M12.7275 6.01688C12.5949 6.01827 12.4862 6.12696 12.4848 6.25962C12.4835 6.39235 12.5899 6.4988 12.7226 6.49743C13.0692 6.49385 13.3936 6.62542 13.6362 6.86799C13.8787 7.11055 14.0103 7.43495 14.0067 7.78154C14.0032 8.12813 13.8648 8.45533 13.6172 8.70293C13.3696 8.95053 13.0424 9.08882 12.6958 9.09242C11.9804 9.0998 11.4043 8.52376 11.4117 7.80833C11.4155 7.44513 11.5738 7.09467 11.8435 6.84649C11.9427 6.75637 11.9506 6.60384 11.862 6.50687C11.7734 6.4099 11.6215 6.40472 11.5227 6.49536C11.1519 6.83525 10.9363 7.31561 10.9312 7.81329C10.921 8.79368 11.7105 9.5831 12.6909 9.57298C13.1811 9.5679 13.6276 9.36399 13.9529 9.03865C14.2781 8.71339 14.4822 8.26674 14.4872 7.77662C14.4922 7.3017 14.3118 6.85706 13.9794 6.5247C13.6471 6.19234 13.2025 6.01196 12.7275 6.01688Z" fill="white"/>
<path d="M13.3674 7.67554C13.5191 7.52386 13.5216 7.28044 13.373 7.13185C13.2244 6.98326 12.981 6.98577 12.8293 7.13746C12.6777 7.28914 12.6751 7.53256 12.8237 7.68115C12.9723 7.82974 13.2157 7.82723 13.3674 7.67554Z" fill="white"/>
<path d="M12.6068 17.8704C11.485 17.882 10.563 18.804 10.5514 19.9257C10.5501 20.0584 10.6565 20.1649 10.7892 20.1635C10.9219 20.1621 11.0306 20.0535 11.032 19.9208C11.0408 19.064 11.745 18.3598 12.6018 18.3509C13.0168 18.3466 13.4053 18.5042 13.6958 18.7947C13.9862 19.0851 14.1438 19.4737 14.1395 19.8887C14.1327 20.5471 13.1241 21.9139 12.5586 22.6047C12.2619 22.2376 11.6663 21.4662 11.3102 20.7716C11.2502 20.6545 11.1056 20.6103 10.9872 20.6727C10.8688 20.7351 10.8215 20.8807 10.8816 20.9978C11.3926 21.9946 12.3306 23.0926 12.3703 23.1389C12.4637 23.2478 12.6388 23.2456 12.7346 23.1351C12.9264 22.9129 14.6093 20.9334 14.6201 19.8837C14.6257 19.3403 14.4194 18.8317 14.0391 18.4514C13.6589 18.0711 13.1502 17.8648 12.6068 17.8704Z" fill="white"/>
<path d="M12.5988 18.3825C12.0424 18.3883 11.585 18.8457 11.5793 19.4021C11.5745 19.8661 12.2281 21.0691 12.3592 21.3056C12.4476 21.4651 12.6863 21.4627 12.7782 21.3012C12.9142 21.062 13.5928 19.8453 13.5975 19.3813C13.6003 19.1117 13.498 18.8594 13.3093 18.6707C13.1207 18.4821 12.8684 18.3798 12.5988 18.3825ZM13.0001 19.0517C13.0768 19.145 13.1182 19.2643 13.117 19.3863C13.1149 19.582 12.8429 20.1698 12.5751 20.6792C12.3177 20.1753 12.0578 19.5931 12.0598 19.3972C12.0621 19.1761 12.2076 18.9714 12.4168 18.8953C12.6255 18.8193 12.8616 18.8832 13.0001 19.0517Z" fill="white"/>
</g>
<path d="M20.1658 6.93177C20.245 6.78976 20.2846 6.71875 20.3438 6.71875C20.4029 6.71875 20.4425 6.78976 20.5217 6.93177L20.5422 6.96852C20.5647 7.00887 20.5759 7.02905 20.5934 7.04236C20.611 7.05568 20.6328 7.06062 20.6765 7.0705L20.7163 7.0795C20.87 7.11429 20.9469 7.13168 20.9652 7.19049C20.9835 7.24929 20.9311 7.31056 20.8263 7.43313L20.7991 7.46483C20.7694 7.49965 20.7545 7.51706 20.7478 7.53861C20.7411 7.56015 20.7433 7.58339 20.7478 7.62985L20.7519 7.67215C20.7678 7.83566 20.7757 7.91743 20.7278 7.95376C20.6799 7.99011 20.608 7.95698 20.464 7.8907L20.4268 7.87355C20.3859 7.85472 20.3654 7.8453 20.3438 7.8453C20.3221 7.8453 20.3016 7.85472 20.2607 7.87355L20.2235 7.8907C20.0795 7.95698 20.0076 7.99011 19.9597 7.95376C19.9118 7.91743 19.9197 7.83566 19.9356 7.67215L19.9397 7.62985C19.9442 7.58339 19.9464 7.56015 19.9397 7.53861C19.933 7.51706 19.9182 7.49965 19.8884 7.46483L19.8613 7.43313C19.7565 7.31056 19.7041 7.24929 19.7223 7.19049C19.7406 7.13168 19.8175 7.11429 19.9712 7.0795L20.011 7.0705C20.0547 7.06062 20.0765 7.05568 20.0941 7.04236C20.1116 7.02905 20.1229 7.00887 20.1453 6.96852L20.1658 6.93177Z" fill="white"/>
<path opacity="0.8" fill-rule="evenodd" clip-rule="evenodd" d="M20.3438 6C20.3955 6 20.4375 6.04197 20.4375 6.09375V6.34375C20.4375 6.39553 20.3955 6.4375 20.3438 6.4375C20.292 6.4375 20.25 6.39553 20.25 6.34375V6.09375C20.25 6.04197 20.292 6 20.3438 6ZM19 7.34375C19 7.29197 19.042 7.25 19.0938 7.25H19.3438C19.3955 7.25 19.4375 7.29197 19.4375 7.34375C19.4375 7.39553 19.3955 7.4375 19.3438 7.4375H19.0938C19.042 7.4375 19 7.39553 19 7.34375ZM21.25 7.34375C21.25 7.29197 21.292 7.25 21.3438 7.25H21.5938C21.6455 7.25 21.6875 7.29197 21.6875 7.34375C21.6875 7.39553 21.6455 7.4375 21.5938 7.4375H21.3438C21.292 7.4375 21.25 7.39553 21.25 7.34375ZM20.3438 8.25C20.3955 8.25 20.4375 8.29197 20.4375 8.34375V8.59375C20.4375 8.64553 20.3955 8.6875 20.3438 8.6875C20.292 8.6875 20.25 8.64553 20.25 8.59375V8.34375C20.25 8.29197 20.292 8.25 20.3438 8.25Z" fill="white"/>
<g opacity="0.5">
<path d="M21.16 6.52746C21.1966 6.56407 21.1966 6.62343 21.16 6.66004L21.1171 6.70295C21.0805 6.73956 21.0211 6.73956 20.9845 6.70295C20.9479 6.66634 20.9479 6.60698 20.9845 6.57037L21.0274 6.52746C21.064 6.49085 21.1234 6.49085 21.16 6.52746Z" fill="white"/>
<path d="M19.5275 6.52746C19.5641 6.49085 19.6234 6.49085 19.66 6.52746L19.7029 6.57037C19.7396 6.60698 19.7396 6.66634 19.7029 6.70295C19.6663 6.73956 19.607 6.73956 19.5704 6.70295L19.5275 6.66004C19.4908 6.62343 19.4908 6.56407 19.5275 6.52746Z" fill="white"/>
<path d="M19.7029 7.98449C19.7395 8.0211 19.7395 8.08047 19.7029 8.11708L19.66 8.15995C19.6234 8.19657 19.5641 8.19657 19.5275 8.15995C19.4908 8.12335 19.4908 8.06399 19.5275 8.02738L19.5703 7.98449C19.607 7.94788 19.6663 7.94788 19.7029 7.98449Z" fill="white"/>
<path d="M20.9845 7.98449C21.0211 7.94788 21.0805 7.94788 21.1171 7.98449L21.16 8.02737C21.1966 8.06398 21.1966 8.12334 21.16 8.15995C21.1233 8.19657 21.064 8.19657 21.0274 8.15995L20.9845 8.11707C20.9479 8.08045 20.9479 8.0211 20.9845 7.98449Z" fill="white"/>
</g>
<path d="M3.16583 11.9318C3.24499 11.7898 3.28458 11.7188 3.34375 11.7188C3.40293 11.7188 3.44251 11.7898 3.52168 11.9318L3.54216 11.9685C3.56465 12.0089 3.5759 12.029 3.59344 12.0424C3.61098 12.0557 3.63283 12.0606 3.67651 12.0705L3.71628 12.0795C3.87001 12.1143 3.94688 12.1317 3.96516 12.1905C3.98345 12.2493 3.93105 12.3106 3.82625 12.4331L3.79913 12.4648C3.76935 12.4997 3.75446 12.5171 3.74776 12.5386C3.74106 12.5601 3.74331 12.5834 3.74781 12.6299L3.75191 12.6722C3.76776 12.8357 3.77568 12.9174 3.7278 12.9538C3.67993 12.9901 3.60796 12.957 3.46403 12.8907L3.42679 12.8735C3.38588 12.8547 3.36543 12.8453 3.34375 12.8453C3.32208 12.8453 3.30163 12.8547 3.26071 12.8735L3.22348 12.8907C3.07954 12.957 3.00757 12.9901 2.9597 12.9538C2.91182 12.9174 2.91974 12.8357 2.93559 12.6722L2.93969 12.6299C2.94419 12.5834 2.94644 12.5601 2.93974 12.5386C2.93304 12.5171 2.91815 12.4997 2.88837 12.4648L2.86126 12.4331C2.75645 12.3106 2.70405 12.2493 2.72234 12.1905C2.74063 12.1317 2.81749 12.1143 2.97122 12.0795L3.01099 12.0705C3.05468 12.0606 3.07652 12.0557 3.09406 12.0424C3.1116 12.029 3.12285 12.0089 3.14534 11.9685L3.16583 11.9318Z" fill="white"/>
<path opacity="0.8" fill-rule="evenodd" clip-rule="evenodd" d="M3.34375 11C3.39553 11 3.4375 11.042 3.4375 11.0938V11.3438C3.4375 11.3955 3.39553 11.4375 3.34375 11.4375C3.29197 11.4375 3.25 11.3955 3.25 11.3438V11.0938C3.25 11.042 3.29197 11 3.34375 11ZM2 12.3438C2 12.292 2.04197 12.25 2.09375 12.25H2.34375C2.39553 12.25 2.4375 12.292 2.4375 12.3438C2.4375 12.3955 2.39553 12.4375 2.34375 12.4375H2.09375C2.04197 12.4375 2 12.3955 2 12.3438ZM4.25 12.3438C4.25 12.292 4.29197 12.25 4.34375 12.25H4.59375C4.64553 12.25 4.6875 12.292 4.6875 12.3438C4.6875 12.3955 4.64553 12.4375 4.59375 12.4375H4.34375C4.29197 12.4375 4.25 12.3955 4.25 12.3438ZM3.34375 13.25C3.39553 13.25 3.4375 13.292 3.4375 13.3438V13.5938C3.4375 13.6455 3.39553 13.6875 3.34375 13.6875C3.29197 13.6875 3.25 13.6455 3.25 13.5938V13.3438C3.25 13.292 3.29197 13.25 3.34375 13.25Z" fill="white"/>
<g opacity="0.5">
<path d="M4.15998 11.5275C4.19659 11.5641 4.19659 11.6234 4.15998 11.66L4.11708 11.7029C4.08047 11.7396 4.0211 11.7396 3.98449 11.7029C3.94788 11.6663 3.94788 11.607 3.98449 11.5704L4.0274 11.5275C4.06402 11.4908 4.12338 11.4908 4.15998 11.5275Z" fill="white"/>
<path d="M2.52746 11.5275C2.56407 11.4908 2.62343 11.4908 2.66004 11.5275L2.70295 11.5704C2.73956 11.607 2.73956 11.6663 2.70295 11.7029C2.66634 11.7396 2.60698 11.7396 2.57037 11.7029L2.52746 11.66C2.49085 11.6234 2.49085 11.5641 2.52746 11.5275Z" fill="white"/>
<path d="M2.70292 12.9845C2.73953 13.0211 2.73953 13.0805 2.70292 13.1171L2.66004 13.16C2.62343 13.1966 2.56407 13.1966 2.52746 13.16C2.49085 13.1234 2.49085 13.064 2.52746 13.0274L2.57034 12.9845C2.60695 12.9479 2.66631 12.9479 2.70292 12.9845Z" fill="white"/>
<path d="M3.98449 12.9845C4.0211 12.9479 4.08047 12.9479 4.11708 12.9845L4.15995 13.0274C4.19657 13.064 4.19657 13.1233 4.15995 13.16C4.12334 13.1966 4.06398 13.1966 4.02737 13.16L3.98449 13.1171C3.94788 13.0805 3.94788 13.0211 3.98449 12.9845Z" fill="white"/>
</g>
<defs>
<clipPath id="clip0_563_18979">
<rect width="15.2307" height="14.9197" fill="white" transform="translate(2 12.7695) rotate(-45)"/>
</clipPath>
</defs>
</svg>
