<svg width="121" height="36" viewBox="0 0 121 36" fill="none" xmlns="http://www.w3.org/2000/svg">
<g filter="url(#filter0_d_562_18788)">
<rect x="4" y="2" width="28" height="28" rx="1" fill="black" shape-rendering="crispEdges"/>
<rect x="10" y="12" width="5" height="1" rx="0.5" fill="white"/>
<rect x="10" y="17" width="7" height="1" rx="0.5" fill="white"/>
<rect x="10" y="26" width="19" height="1" rx="0.5" fill="white"/>
<rect x="10" y="22" width="7" height="1" rx="0.5" fill="white"/>
<path d="M8.5229 10.0909V13H7.90785V10.6747H7.8908L7.22461 11.0923V10.5469L7.94478 10.0909H8.5229Z" fill="white"/>
<path d="M7.99272 23.0398C7.7806 23.0398 7.59168 23.0033 7.42596 22.9304C7.26119 22.8565 7.13098 22.7552 7.03533 22.6264C6.94064 22.4967 6.89187 22.3471 6.88903 22.1776H7.50835C7.51213 22.2486 7.53533 22.3111 7.57795 22.3651C7.62151 22.4181 7.67927 22.4593 7.75124 22.4886C7.82321 22.518 7.90418 22.5327 7.99414 22.5327C8.08789 22.5327 8.17075 22.5161 8.24272 22.483C8.31469 22.4498 8.37103 22.4039 8.41175 22.3452C8.45247 22.2865 8.47283 22.2187 8.47283 22.142C8.47283 22.0644 8.45105 21.9957 8.40749 21.9361C8.36488 21.8755 8.30333 21.8281 8.22283 21.794C8.14329 21.7599 8.04859 21.7429 7.93874 21.7429H7.66744V21.2912H7.93874C8.03155 21.2912 8.11346 21.2751 8.18448 21.2429C8.25645 21.2107 8.31232 21.1662 8.3521 21.1094C8.39187 21.0516 8.41175 20.9844 8.41175 20.9077C8.41175 20.8348 8.39424 20.7708 8.3592 20.7159C8.32511 20.66 8.27681 20.6165 8.21431 20.5852C8.15276 20.554 8.08079 20.5384 7.9984 20.5384C7.91507 20.5384 7.83884 20.5535 7.76971 20.5838C7.70058 20.6132 7.64518 20.6553 7.60352 20.7102C7.56185 20.7652 7.5396 20.8295 7.53675 20.9034H6.94727C6.95011 20.7358 6.99793 20.5881 7.09073 20.4602C7.18353 20.3324 7.30853 20.2325 7.46573 20.1605C7.62388 20.0876 7.80238 20.0511 8.00124 20.0511C8.202 20.0511 8.37766 20.0876 8.52823 20.1605C8.6788 20.2334 8.79575 20.3319 8.87908 20.456C8.96336 20.5791 9.00503 20.7173 9.00408 20.8707C9.00503 21.0336 8.95437 21.1695 8.8521 21.2784C8.75077 21.3873 8.61867 21.4564 8.45579 21.4858V21.5085C8.6698 21.536 8.83268 21.6103 8.94442 21.7315C9.05711 21.8518 9.11299 22.0024 9.11204 22.1832C9.11299 22.349 9.06516 22.4962 8.96857 22.625C8.87293 22.7538 8.74083 22.8551 8.57227 22.929C8.40371 23.0028 8.21052 23.0398 7.99272 23.0398Z" fill="white"/>
<path d="M6.83629 26.4886V26.0043L8.05078 24.0909H8.46839V24.7614H8.22124L7.45561 25.973V25.9957H9.18146V26.4886H6.83629ZM8.2326 27V26.3409L8.24396 26.1264V24.0909H8.82067V27H8.2326Z" fill="white"/>
<path d="M6.97603 18V17.5568L8.01154 16.598C8.09961 16.5128 8.17347 16.4361 8.23313 16.3679C8.29374 16.2997 8.33967 16.233 8.37092 16.1676C8.40217 16.1013 8.41779 16.0298 8.41779 15.9531C8.41779 15.8679 8.39838 15.7945 8.35955 15.733C8.32073 15.6705 8.2677 15.6226 8.20046 15.5895C8.13323 15.5554 8.057 15.5384 7.97177 15.5384C7.88275 15.5384 7.8051 15.5563 7.73881 15.5923C7.67253 15.6283 7.62139 15.6799 7.5854 15.7472C7.54942 15.8144 7.53143 15.8944 7.53143 15.9872H6.94762C6.94762 15.7969 6.99071 15.6316 7.07688 15.4915C7.16306 15.3513 7.28379 15.2429 7.4391 15.1662C7.5944 15.0895 7.77338 15.0511 7.97603 15.0511C8.18436 15.0511 8.36571 15.0881 8.52006 15.1619C8.67537 15.2348 8.79611 15.3362 8.88228 15.4659C8.96845 15.5956 9.01154 15.7443 9.01154 15.9119C9.01154 16.0218 8.98976 16.1302 8.9462 16.2372C8.90359 16.3442 8.82736 16.4631 8.71751 16.5938C8.60766 16.7235 8.45283 16.8793 8.25302 17.0611L7.8283 17.4773V17.4972H9.04989V18H6.97603Z" fill="white"/>
<path d="M19.8065 16.0831V13.0801C19.8065 10.5705 20.4574 8.08128 21.6888 5.88143C22.6162 4.22457 23.5398 3.31594 23.5787 3.27804C23.7318 3.12868 23.9426 3.12868 24.0957 3.27804C24.1346 3.31594 25.0582 4.22457 25.9856 5.88143C27.217 8.08128 27.8678 10.5706 27.8678 13.0801L27.8678 16.0831C28.8925 16.3447 29.668 17.52 29.668 18.9265L29.668 24.7731C29.668 25.0196 29.5437 25.2372 29.362 25.3087C29.3207 25.3248 29.2787 25.3327 29.2372 25.3327C29.0958 25.3327 28.9601 25.242 28.8787 25.0833L27.0785 21.5754C27.0314 21.4835 27.0062 21.3755 27.0062 21.2651V20.6735H25.168V22.2572C25.168 23.1 24.4248 24.6314 24.197 25.0807C24.1172 25.2379 23.9821 25.3325 23.8371 25.3325C23.6923 25.3325 23.5571 25.2379 23.4773 25.0807C23.2495 24.6315 22.5063 23.1 22.5063 22.2572V20.6735H20.6681V21.2651C20.6681 21.3755 20.6429 21.4835 20.5957 21.5754L18.7956 25.0833C18.7142 25.242 18.5785 25.3327 18.4371 25.3327C18.3955 25.3327 18.3536 25.3248 18.3123 25.3087C18.1306 25.2372 18.0063 25.0196 18.0063 24.7731L18.0063 18.9265C18.0064 17.52 18.7818 16.3447 19.8065 16.0831ZM26.9944 12.5205C26.9444 11.3007 26.7303 10.1115 26.3544 8.96238L21.3258 8.96238C20.9852 10.0031 20.736 11.1953 20.6802 12.5205L26.9944 12.5205ZM23.8373 4.45398C23.398 4.95832 22.4823 6.12733 21.7477 7.84328L25.9317 7.84328C25.7465 7.41221 25.5379 6.98732 25.3055 6.56953C24.7354 5.54518 24.1589 4.82262 23.8373 4.45398ZM27.8679 21.0958L28.8063 22.9246L28.8063 18.9265C28.8063 18.1411 28.4125 17.4728 27.8678 17.2377V20.114L27.8679 21.0958ZM27.0063 13.6396L24.268 13.6396V16.1315C24.791 16.3885 25.1681 17.0994 25.1681 17.9345V19.5545H27.0063L27.0063 13.6396ZM23.368 22.2573C23.368 22.4954 23.5758 23.0892 23.8372 23.6948C24.0986 23.0893 24.3064 22.4954 24.3064 22.2573V17.9346C24.3064 17.508 24.0916 17.1475 23.8372 17.1475C23.5828 17.1475 23.368 17.508 23.368 17.9346V22.2573ZM20.6681 19.5546H22.5063V17.9346C22.5063 17.0995 22.8834 16.3886 23.4064 16.1315V13.6397H20.6681L20.6681 19.5546ZM18.868 22.9246L19.8065 21.0957V20.114V17.2377C19.2619 17.4727 18.868 18.141 18.868 18.9265V22.9246Z" fill="white" stroke="#56A8E6" stroke-width="0.000889985"/>
</g>
<path d="M47.4297 20.375C47.8359 20.375 48.1927 20.3594 48.5 20.3281C48.8073 20.2969 49.0755 20.2396 49.3047 20.1562C49.5391 20.0677 49.7396 19.9479 49.9062 19.7969C50.0729 19.6406 50.2161 19.4401 50.3359 19.1953C50.4557 18.9505 50.5573 18.6536 50.6406 18.3047C50.7292 17.9505 50.8073 17.5312 50.875 17.0469H51.4219L51.25 21H42.5078V20.375H44.0703V10.2734H42.5078V9.64844H47.1562V10.2734H45.5938V20.375H47.4297ZM59.3203 21C59.1016 21.0417 58.8984 21.0677 58.7109 21.0781C58.5234 21.0885 58.375 21.0938 58.2656 21.0938C57.9896 21.0938 57.7604 21.0703 57.5781 21.0234C57.401 20.9818 57.2604 20.9193 57.1562 20.8359C57.0521 20.7526 56.9766 20.651 56.9297 20.5312C56.8828 20.4115 56.8542 20.2786 56.8438 20.1328H56.8047C56.6589 20.3359 56.5026 20.5078 56.3359 20.6484C56.1693 20.7891 55.9948 20.901 55.8125 20.9844C55.6302 21.0677 55.4427 21.1276 55.25 21.1641C55.0625 21.2005 54.8724 21.2188 54.6797 21.2188C54.362 21.2188 54.0781 21.1745 53.8281 21.0859C53.5781 21.0026 53.3672 20.8828 53.1953 20.7266C53.0234 20.5703 52.8932 20.3854 52.8047 20.1719C52.7161 19.9531 52.6719 19.7135 52.6719 19.4531C52.6719 18.7292 53.026 18.1797 53.7344 17.8047C54.4479 17.4245 55.474 17.2214 56.8125 17.1953C56.8177 16.9609 56.8203 16.75 56.8203 16.5625C56.8255 16.375 56.8281 16.1901 56.8281 16.0078C56.8281 15.5339 56.7292 15.2031 56.5312 15.0156C56.3385 14.8229 56.0312 14.7266 55.6094 14.7266C55.3281 14.7266 55.0755 14.7578 54.8516 14.8203C54.6328 14.8828 54.4531 14.9661 54.3125 15.0703C54.4375 15.1901 54.5286 15.3177 54.5859 15.4531C54.6484 15.5833 54.6797 15.7135 54.6797 15.8438C54.6797 16.0625 54.6094 16.2448 54.4688 16.3906C54.3281 16.5365 54.1354 16.6094 53.8906 16.6094C53.7865 16.6094 53.6849 16.5938 53.5859 16.5625C53.487 16.5312 53.401 16.4818 53.3281 16.4141C53.2552 16.3464 53.1953 16.263 53.1484 16.1641C53.1068 16.0599 53.0859 15.9401 53.0859 15.8047C53.0859 15.5911 53.1432 15.3854 53.2578 15.1875C53.3776 14.9844 53.5521 14.8047 53.7812 14.6484C54.0156 14.4922 54.3047 14.3672 54.6484 14.2734C54.9974 14.1797 55.4036 14.1328 55.8672 14.1328C56.2422 14.1328 56.5729 14.1693 56.8594 14.2422C57.151 14.3151 57.3958 14.4375 57.5938 14.6094C57.7969 14.776 57.9479 15 58.0469 15.2812C58.151 15.5625 58.2031 15.9115 58.2031 16.3281C58.2031 16.4323 58.2005 16.6042 58.1953 16.8438C58.1953 17.0781 58.1927 17.3385 58.1875 17.625C58.1823 17.9115 58.1771 18.2031 58.1719 18.5C58.1719 18.7917 58.1719 19.0495 58.1719 19.2734C58.1719 19.5026 58.1771 19.6953 58.1875 19.8516C58.1979 20.0026 58.224 20.125 58.2656 20.2188C58.3073 20.3073 58.3698 20.3724 58.4531 20.4141C58.5365 20.4505 58.6536 20.4688 58.8047 20.4688C58.9349 20.4688 59.1068 20.4531 59.3203 20.4219V21ZM56.8125 17.7812C56.2448 17.7969 55.7865 17.8411 55.4375 17.9141C55.0885 17.9818 54.8177 18.0807 54.625 18.2109C54.4323 18.3359 54.3021 18.4896 54.2344 18.6719C54.1667 18.8542 54.1328 19.0625 54.1328 19.2969C54.1328 19.7031 54.2161 20.0078 54.3828 20.2109C54.5547 20.4089 54.7891 20.5078 55.0859 20.5078C55.2474 20.5078 55.4271 20.474 55.625 20.4062C55.8281 20.3385 56.0182 20.2292 56.1953 20.0781C56.3724 19.9219 56.5182 19.7188 56.6328 19.4688C56.7526 19.2188 56.8125 18.9089 56.8125 18.5391V17.7812ZM65.5156 14.9688H64.3828V14.3438H66.9219V20.375H68.0938V21H65.5156V20H65.4844C65.2552 20.4167 64.9714 20.724 64.6328 20.9219C64.2943 21.1198 63.8568 21.2188 63.3203 21.2188C62.5755 21.2188 62.0208 21.0391 61.6562 20.6797C61.2969 20.3151 61.1172 19.7865 61.1172 19.0938V14.9688H59.9844V14.3438H62.5234V19.3281C62.5234 19.75 62.6198 20.0547 62.8125 20.2422C63.0104 20.4245 63.2917 20.5156 63.6562 20.5156C63.9115 20.5156 64.151 20.4688 64.375 20.375C64.6042 20.276 64.8021 20.1172 64.9688 19.8984C65.1406 19.6797 65.2734 19.3932 65.3672 19.0391C65.4661 18.6849 65.5156 18.25 65.5156 17.7344V14.9688ZM71.4922 20.375H72.5469V21H68.9141V20.375H70.0859V14.9688H68.9141V14.3438H71.4922V15.4766H71.5234C71.737 15.0443 72.0234 14.7135 72.3828 14.4844C72.7422 14.25 73.2057 14.1328 73.7734 14.1328C74.487 14.1328 75.0182 14.3177 75.3672 14.6875C75.7161 15.0521 75.8906 15.5755 75.8906 16.2578V20.375H77.0234V21H73.4297V20.375H74.4844V16.0391C74.4844 15.6276 74.388 15.3255 74.1953 15.1328C74.0026 14.9349 73.7318 14.8359 73.3828 14.8359C73.1172 14.8359 72.8698 14.8932 72.6406 15.0078C72.4115 15.1172 72.2109 15.2891 72.0391 15.5234C71.8724 15.7578 71.7396 16.0573 71.6406 16.4219C71.5417 16.7865 71.4922 17.2188 71.4922 17.7188V20.375ZM84.1953 18.8359C84.0234 19.6224 83.7005 20.2161 83.2266 20.6172C82.7578 21.0182 82.1484 21.2188 81.3984 21.2188C80.8776 21.2188 80.4089 21.1276 79.9922 20.9453C79.5807 20.7578 79.2292 20.5052 78.9375 20.1875C78.651 19.8698 78.4297 19.5 78.2734 19.0781C78.1172 18.6562 78.0391 18.2083 78.0391 17.7344C78.0391 17.2396 78.1198 16.7734 78.2812 16.3359C78.4479 15.8984 78.6823 15.5182 78.9844 15.1953C79.2865 14.8672 79.6484 14.6094 80.0703 14.4219C80.4974 14.2292 80.9714 14.1328 81.4922 14.1328C81.862 14.1328 82.2005 14.1823 82.5078 14.2812C82.8203 14.375 83.0885 14.5026 83.3125 14.6641C83.5365 14.8255 83.7109 15.013 83.8359 15.2266C83.9609 15.4401 84.0234 15.6641 84.0234 15.8984C84.0234 16.0651 83.9948 16.2057 83.9375 16.3203C83.8802 16.4297 83.8073 16.5182 83.7188 16.5859C83.6354 16.6536 83.5417 16.7031 83.4375 16.7344C83.3333 16.7656 83.2344 16.7812 83.1406 16.7812C82.8854 16.7812 82.6823 16.7005 82.5312 16.5391C82.3854 16.3776 82.3125 16.1849 82.3125 15.9609C82.3125 15.8255 82.3464 15.6797 82.4141 15.5234C82.4818 15.3672 82.5859 15.2214 82.7266 15.0859C82.5495 14.9453 82.3438 14.8516 82.1094 14.8047C81.8802 14.7526 81.6693 14.7266 81.4766 14.7266C81.2318 14.7266 80.9948 14.7604 80.7656 14.8281C80.5417 14.8906 80.3411 15.0286 80.1641 15.2422C79.9922 15.4505 79.8542 15.75 79.75 16.1406C79.6458 16.5312 79.5938 17.0521 79.5938 17.7031C79.5938 18.3073 79.6406 18.7969 79.7344 19.1719C79.8333 19.5469 79.9661 19.8411 80.1328 20.0547C80.3047 20.263 80.5052 20.4062 80.7344 20.4844C80.9635 20.5573 81.2135 20.5938 81.4844 20.5938C81.7292 20.5938 81.9609 20.5599 82.1797 20.4922C82.3984 20.4245 82.5964 20.3177 82.7734 20.1719C82.9557 20.0208 83.1146 19.8255 83.25 19.5859C83.3906 19.3411 83.5026 19.0417 83.5859 18.6875C83.6901 18.6979 83.7943 18.7161 83.8984 18.7422C84.0026 18.7682 84.1016 18.7995 84.1953 18.8359ZM87.6406 20.375H88.6953V21H85.0625V20.375H86.2344V10.2734H85.0625V9.64844H87.6406V15.3906H87.6719C87.8906 14.9896 88.1771 14.6797 88.5312 14.4609C88.8906 14.2422 89.3516 14.1328 89.9141 14.1328C90.638 14.1328 91.1719 14.3177 91.5156 14.6875C91.8646 15.0521 92.0391 15.5755 92.0391 16.2578V20.375H93.1719V21H89.5781V20.375H90.6328V16.0781C90.6328 15.6406 90.5365 15.3255 90.3438 15.1328C90.151 14.9349 89.875 14.8359 89.5156 14.8359C89.2552 14.8359 89.0104 14.888 88.7812 14.9922C88.5573 15.0964 88.3594 15.2578 88.1875 15.4766C88.0208 15.6953 87.888 15.9766 87.7891 16.3203C87.6901 16.6641 87.6406 17.0781 87.6406 17.5625V20.375ZM98.9609 20.375C99.3672 20.375 99.724 20.3594 100.031 20.3281C100.339 20.2969 100.607 20.2396 100.836 20.1562C101.07 20.0677 101.271 19.9479 101.438 19.7969C101.604 19.6406 101.747 19.4401 101.867 19.1953C101.987 18.9505 102.089 18.6536 102.172 18.3047C102.26 17.9505 102.339 17.5312 102.406 17.0469H102.953L102.781 21H94.0391V20.375H95.6016V10.2734H94.0391V9.64844H98.6875V10.2734H97.125V20.375H98.9609ZM106.508 20.375H107.68V21H103.93V20.375H105.102V14.9688H103.93V14.3438H106.508V20.375ZM105.805 12.1406C105.669 12.1406 105.544 12.1198 105.43 12.0781C105.32 12.0312 105.221 11.9661 105.133 11.8828C105.049 11.7995 104.984 11.7031 104.938 11.5938C104.891 11.4792 104.867 11.3516 104.867 11.2109C104.867 11.0755 104.891 10.9505 104.938 10.8359C104.99 10.7214 105.057 10.6224 105.141 10.5391C105.224 10.4557 105.323 10.3906 105.438 10.3438C105.552 10.2969 105.674 10.2734 105.805 10.2734C105.935 10.2734 106.057 10.2969 106.172 10.3438C106.286 10.3854 106.385 10.4479 106.469 10.5312C106.557 10.6146 106.625 10.7135 106.672 10.8281C106.719 10.9375 106.742 11.0625 106.742 11.2031C106.742 11.3438 106.716 11.4714 106.664 11.5859C106.617 11.7005 106.552 11.7995 106.469 11.8828C106.385 11.9609 106.286 12.0234 106.172 12.0703C106.057 12.1172 105.935 12.1406 105.805 12.1406ZM113.125 16.5547C113.099 16.2161 113.042 15.9297 112.953 15.6953C112.87 15.4609 112.755 15.2708 112.609 15.125C112.464 14.9792 112.286 14.875 112.078 14.8125C111.875 14.7448 111.641 14.7109 111.375 14.7109C111.172 14.7109 110.984 14.7318 110.812 14.7734C110.641 14.8099 110.492 14.8698 110.367 14.9531C110.242 15.0312 110.143 15.1354 110.07 15.2656C110.003 15.3958 109.969 15.5521 109.969 15.7344C109.969 15.9167 110 16.0677 110.062 16.1875C110.13 16.3021 110.237 16.4062 110.383 16.5C110.534 16.5885 110.724 16.6745 110.953 16.7578C111.188 16.8411 111.474 16.9401 111.812 17.0547C112.083 17.1484 112.352 17.2474 112.617 17.3516C112.883 17.4557 113.12 17.5859 113.328 17.7422C113.542 17.8984 113.714 18.0885 113.844 18.3125C113.974 18.5312 114.039 18.7995 114.039 19.1172C114.039 19.4766 113.958 19.7891 113.797 20.0547C113.635 20.3203 113.422 20.5391 113.156 20.7109C112.891 20.8828 112.589 21.0104 112.25 21.0938C111.911 21.1771 111.565 21.2188 111.211 21.2188C111.023 21.2188 110.823 21.2083 110.609 21.1875C110.401 21.1667 110.193 21.138 109.984 21.1016C109.781 21.0651 109.586 21.0234 109.398 20.9766C109.216 20.9245 109.055 20.8724 108.914 20.8203L108.859 18.5547H109.398C109.424 18.9505 109.479 19.2839 109.562 19.5547C109.651 19.8203 109.771 20.0339 109.922 20.1953C110.078 20.3568 110.266 20.4714 110.484 20.5391C110.708 20.6068 110.969 20.6406 111.266 20.6406C111.49 20.6406 111.695 20.6224 111.883 20.5859C112.076 20.5443 112.242 20.4818 112.383 20.3984C112.523 20.3099 112.633 20.1953 112.711 20.0547C112.794 19.9141 112.836 19.7448 112.836 19.5469C112.836 19.375 112.805 19.2344 112.742 19.125C112.68 19.0104 112.581 18.9089 112.445 18.8203C112.31 18.7318 112.135 18.6484 111.922 18.5703C111.708 18.4922 111.453 18.401 111.156 18.2969C110.859 18.1927 110.573 18.0859 110.297 17.9766C110.026 17.862 109.786 17.7266 109.578 17.5703C109.37 17.4089 109.203 17.2161 109.078 16.9922C108.953 16.7682 108.891 16.4948 108.891 16.1719C108.891 15.8177 108.964 15.513 109.109 15.2578C109.255 14.9974 109.448 14.7839 109.688 14.6172C109.932 14.4505 110.211 14.3281 110.523 14.25C110.841 14.1719 111.169 14.1328 111.508 14.1328C111.68 14.1328 111.859 14.1432 112.047 14.1641C112.234 14.1797 112.419 14.2031 112.602 14.2344C112.789 14.2656 112.966 14.3021 113.133 14.3438C113.305 14.3802 113.461 14.4167 113.602 14.4531L113.656 16.5547H113.125ZM120.023 19.4375C119.883 20.0469 119.651 20.4974 119.328 20.7891C119.005 21.0755 118.56 21.2188 117.992 21.2188C117.695 21.2188 117.427 21.1823 117.188 21.1094C116.953 21.0365 116.753 20.9219 116.586 20.7656C116.419 20.6042 116.292 20.401 116.203 20.1562C116.115 19.9062 116.07 19.6042 116.07 19.25V14.9688H114.898V14.3438H116.07V12.8281L117.477 12.5938V14.3438H119.508V14.9688H117.477V19.4219C117.477 19.6354 117.495 19.8099 117.531 19.9453C117.573 20.0807 117.63 20.1875 117.703 20.2656C117.776 20.3438 117.862 20.3984 117.961 20.4297C118.06 20.4557 118.172 20.4688 118.297 20.4688C118.464 20.4688 118.607 20.4453 118.727 20.3984C118.846 20.3464 118.951 20.2708 119.039 20.1719C119.133 20.0677 119.211 19.9401 119.273 19.7891C119.341 19.638 119.404 19.4635 119.461 19.2656C119.56 19.2812 119.656 19.3021 119.75 19.3281C119.844 19.3542 119.935 19.3906 120.023 19.4375Z" fill="black"/>
<defs>
<filter id="filter0_d_562_18788" x="0" y="0" width="36" height="36" filterUnits="userSpaceOnUse" color-interpolation-filters="sRGB">
<feFlood flood-opacity="0" result="BackgroundImageFix"/>
<feColorMatrix in="SourceAlpha" type="matrix" values="0 0 0 0 0 0 0 0 0 0 0 0 0 0 0 0 0 0 127 0" result="hardAlpha"/>
<feMorphology radius="1" operator="erode" in="SourceAlpha" result="effect1_dropShadow_562_18788"/>
<feOffset dy="2"/>
<feGaussianBlur stdDeviation="2.5"/>
<feComposite in2="hardAlpha" operator="out"/>
<feColorMatrix type="matrix" values="0 0 0 0 0 0 0 0 0 0 0 0 0 0 0 0 0 0 0.25 0"/>
<feBlend mode="normal" in2="BackgroundImageFix" result="effect1_dropShadow_562_18788"/>
<feBlend mode="normal" in="SourceGraphic" in2="effect1_dropShadow_562_18788" result="shape"/>
</filter>
</defs>
</svg>
