<svg width="24" height="24" viewBox="0 0 24 24" fill="none" xmlns="http://www.w3.org/2000/svg">
<rect width="24" height="24" rx="12" fill="black"/>
<path d="M10.2718 9.40999V7.91975C10.2718 6.67442 10.5509 5.43915 11.0789 4.3475C11.4765 3.5253 11.8725 3.0744 11.8892 3.05559C11.9548 2.98147 12.0452 2.98147 12.1109 3.05559C12.1276 3.0744 12.5235 3.5253 12.9212 4.3475C13.4491 5.43915 13.7282 6.67445 13.7282 7.91975V9.40999C14.1675 9.53979 14.5 10.123 14.5 10.821L14.5 13.7223C14.5 13.8447 14.4467 13.9526 14.3688 13.9881C14.3511 13.9961 14.3331 14 14.3153 14C14.2547 14 14.1965 13.955 14.1616 13.8763L13.3898 12.1355C13.3696 12.0899 13.3588 12.0363 13.3588 11.9815V11.6879H12.5706V12.4738C12.5706 12.8921 12.252 13.652 12.1543 13.875C12.1201 13.9529 12.0621 13.9999 12 13.9999C11.9379 13.9999 11.8799 13.9529 11.8457 13.875C11.748 13.652 11.4294 12.8921 11.4294 12.4738V11.6879L10.6412 11.6879V11.9815C10.6412 12.0363 10.6305 12.0899 10.6102 12.1355L9.83842 13.8763C9.80352 13.955 9.74533 14 9.68469 14C9.66688 14 9.64888 13.9961 9.6312 13.9881C9.5533 13.9526 9.5 13.8447 9.5 13.7223V10.821C9.50002 10.123 9.83251 9.53979 10.2718 9.40999ZM13.3537 7.64208C13.3322 7.03676 13.2404 6.44665 13.0793 5.87639H10.9233C10.7772 6.39282 10.6704 6.98445 10.6465 7.64208L13.3537 7.64208ZM12.0001 3.63914C11.8117 3.88942 11.4191 4.46953 11.1041 5.32105H12.898C12.8186 5.10713 12.7292 4.89629 12.6296 4.68896C12.3851 4.18064 12.138 3.82207 12.0001 3.63914ZM13.7282 11.8975L14.1306 12.805V10.821C14.1306 10.4312 13.9617 10.0996 13.7282 9.98292L13.7282 11.4103L13.7282 11.8975ZM13.3588 8.19742L12.1847 8.19742V9.43398C12.409 9.56153 12.5706 9.91432 12.5706 10.3287V11.1326H13.3588V8.19742ZM11.7988 12.4739C11.7988 12.592 11.8879 12.8867 12 13.1872C12.1121 12.8867 12.2012 12.592 12.2012 12.4739L12.2012 10.3287C12.2012 10.1171 12.1091 9.9382 12 9.9382C11.891 9.9382 11.7988 10.1171 11.7988 10.3287V12.4739ZM10.6413 11.1327L11.4294 11.1327V10.3287C11.4294 9.91435 11.5911 9.56156 11.8153 9.43402L11.8153 8.19746H10.6413L10.6413 11.1327ZM9.86945 12.805L10.2718 11.8974V11.4103L10.2718 9.98292C10.0384 10.0996 9.86945 10.4312 9.86945 10.821V12.805Z" fill="white" stroke="#56A8E6" stroke-width="0.000889985"/>
<path d="M16.7819 15.7232C16.5992 15.6659 16.3864 15.6326 16.1632 15.6326C15.9193 15.6326 15.6886 15.6722 15.4815 15.7431L15.4912 15.7401L13.5698 16.3684C13.4498 15.9971 12.998 15.7249 12.4593 15.7249C12.4379 15.7249 12.4593 15.7249 12.3981 15.7262H11.0058L9.24573 15.3514C9.20671 15.3426 9.16131 15.3374 9.11478 15.3374H8.48746V15.267C8.48746 15.0786 8.27735 15 8.01847 15H6.90682C6.64793 15 6.5 15.0769 6.5 15.2653V18.6C6.5 18.7884 6.54016 19 6.6118 18.9413H8.01847C8.27735 18.9413 8.48746 18.7884 8.48746 18.6V18.4799C9.08627 18.5662 9.61041 18.6814 10.112 18.8288L10.0524 18.8133C10.506 18.9315 11.029 19 11.5742 19C12.203 19 12.8022 18.9091 13.3492 18.7445L13.3185 18.7526C13.7953 18.5989 14.2005 18.4359 14.5836 18.2506L14.5525 18.2648C14.6778 18.2082 14.8031 18.1523 14.9292 18.0979C15.5497 17.8304 16.0469 17.5967 16.493 17.3616C16.717 17.2453 16.9128 17.1304 17.0985 17.0078L17.0933 17.0113C17.2531 16.9155 17.3803 16.7954 17.4651 16.658L17.4685 16.652C17.4884 16.6154 17.5 16.5731 17.5 16.5289C17.5 16.5035 17.4962 16.4789 17.4891 16.4552L17.4899 16.4574C17.4238 16.1382 17.1578 15.8723 16.789 15.7262L16.7819 15.7232ZM8.01847 18.4799H6.90682V15.4363H8.01847V18.4799ZM16.6492 16.8087C16.4995 16.9062 16.3313 16.9551 16.0592 17.0424C15.787 17.1298 15.4622 17.3024 15.4622 17.3024C14.9196 17.5149 15.0253 17.4651 14.4295 17.7215C14.2975 17.7785 13.7453 18.0023 13.6147 18.061C13.3022 18.2134 13.4163 18.1405 13.0404 18.2648L12.7999 18.3164C12.3887 18.4398 12.0778 18.4005 11.5777 18.4005C11.1511 18.4005 10.7374 18.4964 10.3555 18.4005L9.84341 18.1169C9.299 17.9515 9.20108 17.8749 8.53961 17.7943L8.48783 17.7892L8.53961 15.7997H9.24573L10.3559 15.9435C10.3559 15.9435 10.9592 16.1751 11.0058 16.1751H12.3981C12.5643 16.1751 13.0108 16.3684 12.9559 16.6817C12.9559 16.6817 12.4139 16.8541 12.2477 16.8541H9.84341C9.58453 16.8541 9.37442 16.8183 9.37442 17.0067C9.37442 17.1951 9.54434 17.1936 9.80323 17.1936H12.6551C12.688 17.1936 13.1266 17.1936 13.1266 17.1936L13.3492 17.0133L13.5698 16.8541L14.7688 16.4691L15.9429 16.1751C16.0285 16.1464 16.202 16.1751 16.3074 16.1751C16.3761 16.1751 16.7192 16.162 16.7819 16.1751L16.874 16.3634C16.9434 16.3942 16.8462 16.6478 16.874 16.7029L16.6492 16.8087Z" fill="white"/>
</svg>
