<svg width="24" height="24" viewBox="0 0 24 24" fill="none" xmlns="http://www.w3.org/2000/svg">
<rect width="24" height="24" rx="12" fill="#4A0426"/>
<path d="M8.54367 9.40999V7.91975C8.54367 6.67442 9.1018 5.43915 10.1578 4.3475C10.953 3.5253 11.745 3.0744 11.7783 3.05559C11.9097 2.98147 12.0904 2.98147 12.2218 3.05559C12.2551 3.0744 13.0471 3.5253 13.8423 4.3475C14.8983 5.43915 15.4564 6.67445 15.4564 7.91975V9.40999C16.335 9.53979 17 10.123 17 10.821V13.7223C17 13.8447 16.8934 13.9526 16.7376 13.9881C16.7022 13.9961 16.6662 14 16.6306 14C16.5093 14 16.393 13.955 16.3232 13.8763L14.7795 12.1355C14.7391 12.0899 14.7175 12.0363 14.7175 11.9815V11.6879L13.1412 11.6879V12.4738C13.1412 12.8921 12.5039 13.652 12.3085 13.875C12.2402 13.9529 12.1243 13.9999 12 13.9999C11.8758 13.9999 11.7598 13.9529 11.6915 13.875C11.4961 13.652 10.8588 12.8921 10.8588 12.4738V11.6879H9.28248V11.9815C9.28248 12.0363 9.2609 12.0899 9.22046 12.1355L7.67684 13.8763C7.60705 13.955 7.49065 14 7.36938 14C7.33377 14 7.29776 13.9961 7.26239 13.9881C7.10659 13.9526 7 13.8447 7 13.7223L7 10.821C7.00005 10.123 7.66502 9.53979 8.54367 9.40999ZM14.7074 7.64208C14.6645 7.03676 14.4809 6.44665 14.1585 5.87639L9.84652 5.87639C9.55443 6.39282 9.3407 6.98445 9.29292 7.64208L14.7074 7.64208ZM12.0001 3.63914C11.6234 3.88942 10.8382 4.46953 10.2083 5.32105L13.7961 5.32105C13.6373 5.10713 13.4585 4.89629 13.2591 4.68896C12.7703 4.18064 12.2759 3.82207 12.0001 3.63914ZM15.4564 11.8975L16.2611 12.805V10.821C16.2611 10.4312 15.9234 10.0996 15.4564 9.98292V11.4103L15.4564 11.8975ZM14.7176 8.19742H12.3695V9.43398C12.818 9.56153 13.1413 9.91432 13.1413 10.3287V11.1326L14.7176 11.1326V8.19742ZM11.5977 12.4739C11.5977 12.592 11.7759 12.8867 12 13.1872C12.2242 12.8867 12.4024 12.592 12.4024 12.4739V10.3287C12.4024 10.1171 12.2182 9.9382 12 9.9382C11.7819 9.9382 11.5977 10.1171 11.5977 10.3287V12.4739ZM9.28253 11.1327H10.8588L10.8588 10.3287C10.8588 9.91435 11.1821 9.56156 11.6306 9.43402V8.19746H9.28253V11.1327ZM7.73891 12.805L8.54367 11.8974V11.4103V9.98292C8.07671 10.0996 7.73891 10.4312 7.73891 10.821L7.73891 12.805Z" fill="#FF0000" stroke="#56A8E6" stroke-width="0.000889985"/>
<path d="M18.9555 15.7232C18.6897 15.6659 18.3803 15.6326 18.0555 15.6326C17.7008 15.6326 17.3652 15.6722 17.0639 15.7431L17.0781 15.7401L14.2834 16.3684C14.1088 15.9971 13.4517 15.7249 12.668 15.7249C12.6369 15.7249 12.668 15.7249 12.5791 15.7262H10.5538L7.99378 15.3514C7.93703 15.3426 7.87099 15.3374 7.80332 15.3374H6.89085V15.267C6.89085 15.0786 6.58524 15 6.20868 15H4.59173C4.21517 15 4 15.0769 4 15.2653V18.6C4 18.7884 4.05842 19 4.16263 18.9413H6.20868C6.58524 18.9413 6.89085 18.7884 6.89085 18.6V18.4799C7.76184 18.5662 8.52424 18.6814 9.25389 18.8288L9.16712 18.8133C9.82691 18.9315 10.5877 19 11.3806 19C12.2953 19 13.1668 18.9091 13.9625 18.7445L13.9178 18.7526C14.6114 18.5989 15.2008 18.4359 15.758 18.2506L15.7127 18.2648C15.895 18.2082 16.0772 18.1523 16.2606 18.0979C17.1633 17.8304 17.8864 17.5967 18.5352 17.3616C18.861 17.2453 19.1459 17.1304 19.4161 17.0078L19.4084 17.0113C19.6409 16.9155 19.8259 16.7954 19.9492 16.658L19.9542 16.652C19.9831 16.6154 20 16.5731 20 16.5289C20 16.5035 19.9945 16.4789 19.9842 16.4552L19.9853 16.4574C19.8892 16.1382 19.5023 15.8723 18.9658 15.7262L18.9555 15.7232ZM6.20868 18.4799H4.59173V15.4363H6.20868V18.4799ZM18.7625 16.8087C18.5448 16.9062 18.3001 16.9551 17.9042 17.0424C17.5083 17.1298 17.0359 17.3024 17.0359 17.3024C16.2466 17.5149 16.4005 17.4651 15.5339 17.7215C15.3418 17.7785 14.5386 18.0023 14.3487 18.061C13.8941 18.2134 14.0601 18.1405 13.5133 18.2648L13.1635 18.3164C12.5654 18.4398 12.1132 18.4005 11.3857 18.4005C10.7652 18.4005 10.1635 18.4964 9.60794 18.4005L8.86314 18.1169C8.07128 17.9515 7.92884 17.8749 6.96671 17.7943L6.89139 17.7892L6.96671 15.7997H7.99378L9.60862 15.9435C9.60862 15.9435 10.4862 16.1751 10.5538 16.1751H12.5791C12.8208 16.1751 13.4703 16.3684 13.3903 16.6817C13.3903 16.6817 12.602 16.8541 12.3603 16.8541H8.86314C8.48658 16.8541 8.18097 16.8183 8.18097 17.0067C8.18097 17.1951 8.42814 17.1936 8.8047 17.1936H12.9528C13.0007 17.1936 13.6388 17.1936 13.6388 17.1936L13.9625 17.0133L14.2834 16.8541L16.0274 16.4691L17.7352 16.1751C17.8596 16.1464 18.112 16.1751 18.2653 16.1751C18.3652 16.1751 18.8643 16.162 18.9555 16.1751L19.0894 16.3634C19.1904 16.3942 19.049 16.6478 19.0894 16.7029L18.7625 16.8087Z" fill="#FF0000"/>
</svg>
