<svg width="32" height="32" viewBox="0 0 32 32" fill="none" xmlns="http://www.w3.org/2000/svg">
<g filter="url(#filter0_d_553_18745)">
<rect x="4" y="2" width="24" height="24" rx="1" fill="black" shape-rendering="crispEdges"/>
<rect x="10" y="13" width="5" height="1" rx="0.5" fill="white"/>
<rect x="11" y="18" width="4" height="1" rx="0.5" fill="white"/>
<rect x="19" y="23" width="7" height="1" rx="0.5" fill="white"/>
<rect x="11" y="23" width="7" height="1" rx="0.5" fill="white"/>
<path d="M8.5229 11.0909V14H7.90785V11.6747H7.8908L7.22461 12.0923V11.5469L7.94478 11.0909H8.5229Z" fill="white"/>
<path d="M7.99272 24.0398C7.7806 24.0398 7.59168 24.0033 7.42596 23.9304C7.26119 23.8565 7.13098 23.7552 7.03533 23.6264C6.94064 23.4967 6.89187 23.3471 6.88903 23.1776H7.50835C7.51213 23.2486 7.53533 23.3111 7.57795 23.3651C7.62151 23.4181 7.67927 23.4593 7.75124 23.4886C7.82321 23.518 7.90418 23.5327 7.99414 23.5327C8.08789 23.5327 8.17075 23.5161 8.24272 23.483C8.31469 23.4498 8.37103 23.4039 8.41175 23.3452C8.45247 23.2865 8.47283 23.2187 8.47283 23.142C8.47283 23.0644 8.45105 22.9957 8.40749 22.9361C8.36488 22.8755 8.30333 22.8281 8.22283 22.794C8.14329 22.7599 8.04859 22.7429 7.93874 22.7429H7.66744V22.2912H7.93874C8.03155 22.2912 8.11346 22.2751 8.18448 22.2429C8.25645 22.2107 8.31232 22.1662 8.3521 22.1094C8.39187 22.0516 8.41175 21.9844 8.41175 21.9077C8.41175 21.8348 8.39424 21.7708 8.3592 21.7159C8.32511 21.66 8.27681 21.6165 8.21431 21.5852C8.15276 21.554 8.08079 21.5384 7.9984 21.5384C7.91507 21.5384 7.83884 21.5535 7.76971 21.5838C7.70058 21.6132 7.64518 21.6553 7.60352 21.7102C7.56185 21.7652 7.5396 21.8295 7.53675 21.9034H6.94727C6.95011 21.7358 6.99793 21.5881 7.09073 21.4602C7.18353 21.3324 7.30853 21.2325 7.46573 21.1605C7.62388 21.0876 7.80238 21.0511 8.00124 21.0511C8.202 21.0511 8.37766 21.0876 8.52823 21.1605C8.6788 21.2334 8.79575 21.3319 8.87908 21.456C8.96336 21.5791 9.00503 21.7173 9.00408 21.8707C9.00503 22.0336 8.95437 22.1695 8.8521 22.2784C8.75077 22.3873 8.61867 22.4564 8.45579 22.4858V22.5085C8.6698 22.536 8.83268 22.6103 8.94442 22.7315C9.05711 22.8518 9.11299 23.0024 9.11204 23.1832C9.11299 23.349 9.06516 23.4962 8.96857 23.625C8.87293 23.7538 8.74083 23.8551 8.57227 23.929C8.40371 24.0028 8.21052 24.0398 7.99272 24.0398Z" fill="white"/>
<path d="M6.97603 19V18.5568L8.01154 17.598C8.09961 17.5128 8.17347 17.4361 8.23313 17.3679C8.29374 17.2997 8.33967 17.233 8.37092 17.1676C8.40217 17.1013 8.41779 17.0298 8.41779 16.9531C8.41779 16.8679 8.39838 16.7945 8.35955 16.733C8.32073 16.6705 8.2677 16.6226 8.20046 16.5895C8.13323 16.5554 8.057 16.5384 7.97177 16.5384C7.88275 16.5384 7.8051 16.5563 7.73881 16.5923C7.67253 16.6283 7.62139 16.6799 7.5854 16.7472C7.54942 16.8144 7.53143 16.8944 7.53143 16.9872H6.94762C6.94762 16.7969 6.99071 16.6316 7.07688 16.4915C7.16306 16.3513 7.28379 16.2429 7.4391 16.1662C7.5944 16.0895 7.77338 16.0511 7.97603 16.0511C8.18436 16.0511 8.36571 16.0881 8.52006 16.1619C8.67537 16.2348 8.79611 16.3362 8.88228 16.4659C8.96845 16.5956 9.01154 16.7443 9.01154 16.9119C9.01154 17.0218 8.98976 17.1302 8.9462 17.2372C8.90359 17.3442 8.82736 17.4631 8.71751 17.5938C8.60766 17.7235 8.45283 17.8793 8.25302 18.0611L7.8283 18.4773V18.4972H9.04989V19H6.97603Z" fill="white"/>
<path d="M17.5473 14.0718L17.5473 11.4978C17.5473 9.34672 18.1052 7.21308 19.1607 5.3275C19.9556 3.90733 20.7473 3.1285 20.7806 3.09602C20.9118 2.96799 21.0925 2.96799 21.2238 3.09602C21.2571 3.1285 22.0488 3.90733 22.8437 5.3275C23.8992 7.21308 24.457 9.34678 24.457 11.4978V14.0718C25.3353 14.296 26 15.3034 26 16.509L26 21.5203C26 21.7317 25.8935 21.9181 25.7377 21.9794C25.7024 21.9933 25.6664 22 25.6308 22C25.5096 22 25.3932 21.9222 25.3234 21.7863L23.7805 18.7794C23.7401 18.7007 23.7185 18.6081 23.7185 18.5135V18.0064L22.1429 18.0064V19.3639C22.1429 20.0863 21.5058 21.3989 21.3106 21.784C21.2422 21.9187 21.1264 21.9999 21.0021 21.9999C20.878 21.9999 20.7621 21.9187 20.6937 21.784C20.4985 21.3989 19.8614 20.0863 19.8614 19.3639V18.0064H18.2858V18.5135C18.2858 18.6081 18.2642 18.7007 18.2238 18.7794L16.6808 21.7863C16.6111 21.9222 16.4947 22 16.3735 22C16.3379 22 16.3019 21.9933 16.2666 21.9794C16.1108 21.9181 16.0043 21.7317 16.0043 21.5203V16.509C16.0043 15.3034 16.669 14.296 17.5473 14.0718ZM23.7084 11.0181C23.6655 9.97258 23.482 8.95331 23.1598 7.96831L18.8496 7.96831C18.5576 8.86033 18.344 9.88222 18.2962 11.0181L23.7084 11.0181ZM21.0023 4.10397C20.6257 4.53626 19.8409 5.53827 19.2112 7.00909L22.7974 7.00909C22.6387 6.63959 22.46 6.27541 22.2607 5.91729C21.7721 5.03928 21.278 4.41994 21.0023 4.10397ZM24.4571 18.3684L25.2615 19.9359V16.509C25.2615 15.8358 24.9238 15.263 24.457 15.0614L24.457 17.5269L24.4571 18.3684ZM23.7185 11.9774L21.3715 11.9774L21.3715 14.1132C21.8198 14.3335 22.1429 14.9429 22.1429 15.6587V17.0473H23.7185V11.9774ZM20.6 19.364C20.6 19.568 20.7781 20.077 21.0022 20.5961C21.2263 20.0771 21.4044 19.568 21.4044 19.364V15.6587C21.4044 15.2931 21.2202 14.9842 21.0022 14.9842C20.7842 14.9842 20.6 15.2931 20.6 15.6587V19.364ZM18.2858 17.0473H19.8614V15.6587C19.8614 14.943 20.1846 14.3336 20.6329 14.1133V11.9774H18.2858L18.2858 17.0473ZM16.7429 19.9359L17.5473 18.3683V17.5269V15.0614C17.0805 15.2629 16.7429 15.8357 16.7429 16.509L16.7429 19.9359Z" fill="white" stroke="#56A8E6" stroke-width="0.000889985"/>
</g>
<defs>
<filter id="filter0_d_553_18745" x="0" y="0" width="32" height="32" filterUnits="userSpaceOnUse" color-interpolation-filters="sRGB">
<feFlood flood-opacity="0" result="BackgroundImageFix"/>
<feColorMatrix in="SourceAlpha" type="matrix" values="0 0 0 0 0 0 0 0 0 0 0 0 0 0 0 0 0 0 127 0" result="hardAlpha"/>
<feMorphology radius="1" operator="erode" in="SourceAlpha" result="effect1_dropShadow_553_18745"/>
<feOffset dy="2"/>
<feGaussianBlur stdDeviation="2.5"/>
<feComposite in2="hardAlpha" operator="out"/>
<feColorMatrix type="matrix" values="0 0 0 0 0 0 0 0 0 0 0 0 0 0 0 0 0 0 0.25 0"/>
<feBlend mode="normal" in2="BackgroundImageFix" result="effect1_dropShadow_553_18745"/>
<feBlend mode="normal" in="SourceGraphic" in2="effect1_dropShadow_553_18745" result="shape"/>
</filter>
</defs>
</svg>
