<svg width="104" height="93" viewBox="0 0 104 93" fill="none" xmlns="http://www.w3.org/2000/svg">
<path d="M51.5679 14.2016L52 14.9437L52.4321 14.2016C57.313 5.81864 65.9003 0.5 75.6364 0.5C90.9193 0.5 103.5 14.1834 103.5 31C103.5 38.6124 100.306 46.2648 95.4598 53.487C90.6165 60.7055 84.1493 67.4553 77.6667 73.2523C71.1862 79.0474 64.7033 83.8785 59.8395 87.2614C57.408 88.9525 55.3823 90.2809 53.9652 91.186C53.2567 91.6386 52.7004 91.9853 52.3217 92.2186C52.1944 92.297 52.0872 92.3626 52.001 92.4151C51.9147 92.3621 51.8073 92.2959 51.6797 92.2167C51.301 91.9815 50.7447 91.6322 50.0361 91.1763C48.619 90.2646 46.5932 88.9271 44.1616 87.2259C39.2976 83.8228 32.8146 78.9673 26.3338 73.1559C19.8509 67.3426 13.3835 60.5844 8.53998 53.3777C3.69365 46.1669 0.5 38.547 0.5 31C0.5 14.1834 13.0807 0.5 28.3636 0.5C38.0997 0.5 46.687 5.81864 51.5679 14.2016Z" fill="#F44336" stroke="black"/>
</svg>
