<svg width="24" height="24" viewBox="0 0 24 24" fill="none" xmlns="http://www.w3.org/2000/svg">
<rect width="24" height="24" rx="12" fill="black"/>
<path d="M19.3003 16.5289C19.0295 16.4651 18.7144 16.4277 18.3837 16.427C18.0225 16.4262 17.6809 16.4691 17.3743 16.5467L17.3887 16.5434L14.5445 17.2299C14.3658 16.8202 13.6961 16.5187 12.8981 16.517C12.8665 16.517 12.8981 16.517 12.8076 16.5183L10.7454 16.514L8.13776 16.0952C8.07995 16.0854 8.0127 16.0796 7.94379 16.0794L7.01467 16.0775L7.01451 15.9998C7.01408 15.7921 6.70271 15.7048 6.31928 15.704L4.67284 15.7005C4.28941 15.6997 4.07049 15.784 4.07092 15.9916L4.07856 19.6677C4.07899 19.8753 4.13896 20.1087 4.24494 20.0442L6.32831 20.0486C6.71174 20.0495 7.02258 19.8816 7.02215 19.6739L7.02187 19.5415C7.90896 19.6385 8.68552 19.7671 9.42882 19.9312L9.34043 19.9139C10.0125 20.0456 10.7873 20.1228 11.5948 20.1245C12.5261 20.1265 13.4133 20.0282 14.2231 19.8484L14.1776 19.8574C14.8835 19.6894 15.4833 19.511 16.0502 19.3079L16.0042 19.3235C16.1896 19.2616 16.3751 19.2002 16.5617 19.1408C17.4802 18.8478 18.216 18.5917 18.8761 18.334C19.2076 18.2065 19.4974 18.0804 19.7722 17.9459L19.7644 17.9498C20.0009 17.8446 20.1891 17.7126 20.3143 17.5615L20.3193 17.5549C20.3487 17.5146 20.3658 17.468 20.3657 17.4192C20.3656 17.3913 20.36 17.3642 20.3494 17.338L20.3505 17.3404C20.252 16.9883 19.8574 16.6944 19.3108 16.5322L19.3003 16.5289ZM6.32726 19.54L4.68081 19.5365L4.67384 16.1815L6.32028 16.185L6.32726 19.54ZM19.1063 17.7251C18.8848 17.832 18.6358 17.8854 18.2329 17.9808C17.83 18.0762 17.3493 18.2655 17.3493 18.2655C16.5461 18.498 16.7027 18.4435 15.8208 18.7242C15.6254 18.7867 14.808 19.0316 14.6148 19.0959C14.1523 19.2628 14.3212 19.1829 13.7647 19.3187L13.4086 19.3748C12.7998 19.5095 12.3393 19.4653 11.5986 19.4637C10.9667 19.4624 10.3543 19.5667 9.78835 19.4599L9.02931 19.1456C8.22262 18.9615 8.07742 18.8768 7.09754 18.7859L7.02085 18.7801L7.09297 16.5872L8.13879 16.5894L9.78341 16.7514C9.78341 16.7514 10.6775 17.0086 10.7464 17.0087L12.8086 17.0131C13.0548 17.0136 13.7165 17.2281 13.6358 17.5734C13.6358 17.5734 12.8335 17.7617 12.5873 17.7612L9.02642 17.7536C8.64299 17.7528 8.33172 17.7127 8.33216 17.9203C8.33259 18.128 8.58426 18.1269 8.96769 18.1277L13.1915 18.1367C13.2402 18.1368 13.8899 18.1382 13.8899 18.1382L14.2192 17.9401L14.5456 17.7654L16.3205 17.3447L18.0588 17.0243C18.1854 16.993 18.4424 17.0251 18.5986 17.0254C18.7003 17.0257 19.2085 17.0123 19.3013 17.0269L19.4381 17.2348C19.541 17.2691 19.3977 17.5482 19.4389 17.6091L19.1063 17.7251Z" fill="white"/>
<path d="M12.4766 2.43543C12.4374 2.41632 12.3928 2.41511 12.3546 2.43218C10.3409 3.32971 10.1698 5.20003 10.1897 5.96248C10.2027 6.46063 10.3631 7.35523 10.5617 8.25629C10.3071 8.4614 9.96883 8.78146 9.69634 9.2072C9.37239 9.71337 9.21547 10.2508 9.22993 10.8046C9.23254 10.9037 9.33371 10.9784 9.42559 10.9494L11.2333 10.3773L11.4567 10.3833L11.2623 10.7931C11.2174 10.888 11.2917 11.0069 11.3981 11.0098L13.8828 11.0763C13.9892 11.0791 14.0574 10.9639 14.0074 10.8666L13.7913 10.4457L14.0148 10.4517L15.8549 11.1213C15.9485 11.1554 16.0459 11.086 16.0433 10.9868C16.0105 9.73066 15.1132 8.80602 14.5764 8.36359C14.7283 7.47193 14.842 6.58469 14.829 6.08657C14.8091 5.32411 14.54 3.44203 12.4766 2.43543ZM12.4233 2.7304C13.5168 3.28419 14.0497 4.10746 14.3066 4.83277L13.8191 4.81973C13.5411 4.34006 13.0308 4.00698 12.4563 3.9916C11.8816 3.97626 11.3881 4.28248 11.1348 4.74796L10.6473 4.73492C10.8667 4.02233 11.3573 3.22643 12.4233 2.7304ZM13.7491 5.58661C13.7582 5.93596 13.6261 6.24886 13.4053 6.4722C13.1846 6.6955 12.8753 6.82926 12.5301 6.82003C11.8398 6.80156 11.2633 6.2182 11.245 5.51964C11.2268 4.82107 11.7736 4.26777 12.4639 4.28624C13.1543 4.30468 13.7308 4.88804 13.7491 5.58661ZM11.0275 10.129L9.52468 10.6046C9.58151 9.67014 10.1785 8.9814 10.6361 8.58595C10.7656 9.14867 10.905 9.69504 11.0275 10.129ZM13.6395 10.7753L11.626 10.7215L11.7823 10.392L13.4658 10.437L13.6395 10.7753ZM15.7376 10.7707L14.2079 10.2141C14.3078 9.78609 14.4189 9.24648 14.5192 8.68996C14.9838 9.09886 15.6303 9.82569 15.7376 10.7707ZM14.3431 7.9677L13.156 7.93593C13.0756 7.9338 13.0121 7.99801 13.0142 8.07934C13.0164 8.16072 13.0833 8.22841 13.1637 8.23056L14.295 8.26081C14.1803 8.9398 14.0421 9.63003 13.919 10.1547L11.3137 10.085C11.163 9.55305 10.9885 8.85443 10.8382 8.16835L12.4842 8.21237C12.5646 8.21451 12.6281 8.1503 12.626 8.06896C12.6238 7.98758 12.5569 7.9199 12.4765 7.91775L10.7747 7.87223C10.751 7.75903 10.7281 7.64695 10.7063 7.53672L14.394 7.63535C14.3779 7.74457 14.3609 7.85562 14.3431 7.9677ZM14.4352 7.34204L10.6497 7.2408C10.5536 6.72079 10.4886 6.26463 10.4809 5.97028C10.4749 5.74169 10.4875 5.40552 10.5705 5.02725L11.0146 5.03914C10.9711 5.18764 10.9495 5.34638 10.9538 5.51185C10.9763 6.3729 11.6869 7.09191 12.5378 7.11469C12.9633 7.12605 13.3445 6.96125 13.6166 6.68596C13.8886 6.41067 14.0515 6.02494 14.0403 5.59443C14.0359 5.42894 14.006 5.26884 13.9547 5.1178L14.3988 5.12968C14.5017 5.51291 14.5319 5.8502 14.5378 6.07879C14.5455 6.37312 14.5043 6.82645 14.4352 7.34204Z" fill="white"/>
<path d="M12.4223 4.37787C12.3551 4.37775 12.3008 4.4327 12.301 4.50061C12.3011 4.56855 12.3556 4.62372 12.4228 4.62386C12.5981 4.62422 12.763 4.69363 12.8873 4.81934C13.0115 4.94505 13.0801 5.11196 13.0805 5.28938C13.0808 5.46679 13.0129 5.63343 12.8892 5.75863C12.7654 5.88383 12.6007 5.95256 12.4254 5.95221C12.0635 5.95147 11.7684 5.65293 11.7677 5.2867C11.7673 5.10078 11.8453 4.92237 11.9801 4.79701C12.0298 4.7515 12.0328 4.67346 11.9874 4.62326C11.942 4.57305 11.8651 4.56944 11.8157 4.61522C11.6302 4.78689 11.5241 5.03145 11.5246 5.28621C11.5256 5.78806 11.9299 6.1972 12.4259 6.19821C12.6739 6.19871 12.8985 6.09713 13.0611 5.93262C13.2236 5.76816 13.324 5.54078 13.3235 5.2899C13.3231 5.04679 13.229 4.81801 13.0588 4.64576C12.8886 4.47351 12.6625 4.37835 12.4223 4.37787Z" fill="white"/>
<path d="M12.5535 5.41734C12.6293 5.34064 12.629 5.21604 12.5529 5.13903C12.4768 5.06202 12.3537 5.06177 12.2779 5.13847C12.2021 5.21517 12.2023 5.33977 12.2784 5.41678C12.3545 5.49379 12.4777 5.49404 12.5535 5.41734Z" fill="white"/>
<path d="M12.7412 11.4312C12.1738 11.43 11.713 11.8962 11.7142 12.4704C11.7143 12.5384 11.7688 12.5935 11.836 12.5937C11.9031 12.5938 11.9574 12.5389 11.9573 12.4709C11.9564 12.0324 12.3083 11.6763 12.7417 11.6772C12.9517 11.6776 13.1492 11.7607 13.298 11.9112C13.4467 12.0618 13.5289 12.2617 13.5293 12.4741C13.53 12.8112 13.0282 13.5046 12.7464 13.8546C12.594 13.6648 12.2878 13.2661 12.1033 12.9083C12.0723 12.848 11.9988 12.8244 11.9393 12.8556C11.8798 12.8868 11.8568 12.9611 11.8879 13.0214C12.1527 13.5349 12.6341 14.103 12.6545 14.1269C12.7024 14.1833 12.791 14.1833 12.8387 14.1273C12.9344 14.0147 13.7735 13.012 13.7724 12.4746C13.7719 12.1965 13.6643 11.9348 13.4695 11.7377C13.2748 11.5406 13.0161 11.4317 12.7412 11.4312Z" fill="#FF0000"/>
<path d="M12.7429 11.6988C12.4614 11.6982 12.2328 11.9295 12.2334 12.2143C12.2339 12.4518 12.5721 13.0718 12.6399 13.1937C12.6856 13.276 12.8063 13.2762 12.8518 13.1942C12.9191 13.0725 13.2549 12.4539 13.2544 12.2164C13.2541 12.0784 13.2008 11.9486 13.1041 11.8508C13.0075 11.753 12.8792 11.6991 12.7429 11.6988ZM12.9501 12.0439C12.9895 12.0922 13.0112 12.1535 13.0113 12.2159C13.0115 12.3161 12.8775 12.6153 12.7452 12.8744C12.6118 12.6148 12.4767 12.3151 12.4765 12.2148C12.4762 12.1017 12.5486 11.9978 12.654 11.9602C12.7591 11.9226 12.8789 11.9568 12.9501 12.0439Z" fill="#FF0000"/>
</svg>
